<svg width="100%" height="20" viewBox="0 0 1727 385" fill="none" xmlns="http://www.w3.org/2000/svg">
<path d="M145.082 385C117.749 385 93.082 378.833 71.082 366.5C49.4154 353.833 32.082 336.667 19.082 315C6.41536 293.333 0.0820312 269 0.0820312 242C0.0820312 215 6.41536 190.833 19.082 169.5C31.7487 147.833 49.082 130.833 71.082 118.5C93.082 106.167 117.749 100 145.082 100C165.415 100 184.249 103.5 201.582 110.5C218.915 117.5 233.749 127.333 246.082 140C258.415 152.333 267.249 167 272.582 184L207.582 212C202.915 198.333 194.915 187.5 183.582 179.5C172.582 171.5 159.749 167.5 145.082 167.5C132.082 167.5 120.415 170.667 110.082 177C100.082 183.333 92.082 192.167 86.082 203.5C80.4154 214.833 77.582 227.833 77.582 242.5C77.582 257.167 80.4154 270.167 86.082 281.5C92.082 292.833 100.082 301.667 110.082 308C120.415 314.333 132.082 317.5 145.082 317.5C160.082 317.5 173.082 313.5 184.082 305.5C195.082 297.5 202.915 286.667 207.582 273L272.582 301.5C267.582 317.5 258.915 331.833 246.582 344.5C234.249 357.167 219.415 367.167 202.082 374.5C184.749 381.5 165.749 385 145.082 385ZM448.246 385C419.246 385 394.079 378.667 372.746 366C351.413 353 334.913 335.667 323.246 314C311.579 292.333 305.746 268.333 305.746 242C305.746 214.667 311.746 190.333 323.746 169C336.079 147.667 352.579 130.833 373.246 118.5C393.913 106.167 417.246 100 443.246 100C464.913 100 484.079 103.5 500.746 110.5C517.413 117.167 531.413 126.667 542.746 139C554.413 151.333 563.246 165.667 569.246 182C575.246 198 578.246 215.5 578.246 234.5C578.246 239.833 577.913 245.167 577.246 250.5C576.913 255.5 576.079 259.833 574.746 263.5H370.246V208.5H532.246L496.746 234.5C500.079 220.167 499.913 207.5 496.246 196.5C492.579 185.167 486.079 176.333 476.746 170C467.746 163.333 456.579 160 443.246 160C430.246 160 419.079 163.167 409.746 169.5C400.413 175.833 393.413 185.167 388.746 197.5C384.079 209.833 382.246 224.833 383.246 242.5C381.913 257.833 383.579 271.333 388.246 283C393.246 294.667 400.746 303.833 410.746 310.5C421.079 316.833 433.579 320 448.246 320H548.246V385H448.246ZM622.41 379V106H751.91C776.91 106 798.41 110.333 816.41 119C834.41 127.667 848.243 140 857.91 156C867.577 172 872.41 191 872.41 213V379H797.41V217C797.41 203 793.244 191.833 784.91 183.5C776.577 175.167 765.577 171 751.91 171H697.41V379H622.41ZM1053.23 382C1020.23 382 994.56 373.167 976.227 355.5C958.227 337.5 949.227 312.5 949.227 280.5V171H903.227V106H905.727C919.727 106 930.393 102.5 937.727 95.5C945.393 88.5 949.227 78 949.227 64V44H1024.23V106H1088.23V171H1024.23V275.5C1024.23 284.833 1025.89 292.667 1029.23 299C1032.56 305 1037.73 309.5 1044.73 312.5C1051.73 315.5 1060.39 317 1070.73 317C1073.06 317 1075.73 316.833 1078.73 316.5C1081.73 316.167 1084.89 315.833 1088.23 315.5V379C1083.23 379.667 1077.56 380.333 1071.23 381C1064.89 381.667 1058.89 382 1053.23 382ZM1132.18 379V106H1202.18V171.5L1197.18 162C1203.18 139 1213.01 123.5 1226.68 115.5C1240.68 107.167 1257.18 103 1276.18 103H1292.18V168H1268.68C1250.34 168 1235.51 173.667 1224.18 185C1212.84 196 1207.18 211.667 1207.18 232V379H1132.18ZM1409.55 385C1389.88 385 1372.88 381.833 1358.55 375.5C1344.21 369.167 1333.21 360.167 1325.55 348.5C1317.88 336.5 1314.05 322.333 1314.05 306C1314.05 290.667 1317.55 277.167 1324.55 265.5C1331.55 253.5 1342.21 243.5 1356.55 235.5C1371.21 227.5 1389.38 221.833 1411.05 218.5L1494.55 205V260L1424.55 272.5C1413.88 274.5 1405.71 278 1400.05 283C1394.38 287.667 1391.55 294.5 1391.55 303.5C1391.55 311.833 1394.71 318.333 1401.05 323C1407.38 327.667 1415.21 330 1424.55 330C1436.88 330 1447.71 327.333 1457.05 322C1466.38 316.667 1473.55 309.5 1478.55 300.5C1483.88 291.167 1486.55 281 1486.55 270V217C1486.55 203 1482.21 191.833 1473.55 183.5C1464.88 175.167 1452.38 171 1436.05 171H1344.05V106H1441.05C1466.05 106 1487.55 110.333 1505.55 119C1523.55 127.667 1537.38 140 1547.05 156C1556.71 172 1561.55 191 1561.55 213V379H1491.55V335L1508.55 332C1500.55 344 1491.71 354 1482.05 362C1472.38 369.667 1461.55 375.333 1449.55 379C1437.55 383 1424.21 385 1409.55 385ZM1713.05 382C1679.72 382 1655.22 374.833 1639.55 360.5C1624.22 345.833 1616.55 323 1616.55 292V0.499985H1691.55V286.5C1691.55 306.833 1702.55 317 1724.55 317H1726.55V382H1713.05Z" fill="#F9F9F9"/>
</svg>
