<svg width="100%" height="600" viewBox="0 0 922 1470" fill="none" xmlns="http://www.w3.org/2000/svg">
<path d="M475.5 265.667C468.136 265.667 462.167 271.636 462.167 279C462.167 286.364 468.136 292.333 475.5 292.333C482.864 292.333 488.833 286.364 488.833 279C488.833 271.636 482.864 265.667 475.5 265.667ZM475.5 680.667C468.136 680.667 462.167 686.636 462.167 694C462.167 701.364 468.136 707.333 475.5 707.333C482.864 707.333 488.833 701.364 488.833 694C488.833 686.636 482.864 680.667 475.5 680.667ZM473 279V283.94H478V279H473ZM473 293.821V303.702H478V293.821H473ZM473 313.583V323.464H478V313.583H473ZM473 333.345V343.226H478V333.345H473ZM473 353.107V362.988H478V353.107H473ZM473 372.869V382.75H478V372.869H473ZM473 392.631V402.512H478V392.631H473ZM473 412.393V422.274H478V412.393H473ZM473 432.155V442.036H478V432.155H473ZM473 451.917V461.798H478V451.917H473ZM473 471.679V481.56H478V471.679H473ZM473 491.44V501.321H478V491.44H473ZM473 511.202V521.083H478V511.202H473ZM473 530.964V540.845H478V530.964H473ZM473 550.726V560.607H478V550.726H473ZM473 570.488V580.369H478V570.488H473ZM473 590.25V600.131H478V590.25H473ZM473 610.012V619.893H478V610.012H473ZM473 629.774V639.655H478V629.774H473ZM473 649.536V659.417H478V649.536H473ZM473 669.298V679.179H478V669.298H473ZM473 689.059V694H478V689.059H473Z" fill="#D2D2D2"/>
<path d="M671 787.667C663.636 787.667 657.667 793.636 657.667 801C657.667 808.364 663.636 814.333 671 814.333C678.364 814.333 684.333 808.364 684.333 801C684.333 793.636 678.364 787.667 671 787.667ZM671 1306.67C663.636 1306.67 657.667 1312.64 657.667 1320C657.667 1327.36 663.636 1333.33 671 1333.33C678.364 1333.33 684.333 1327.36 684.333 1320C684.333 1312.64 678.364 1306.67 671 1306.67ZM668.5 801V805.99H673.5V801H668.5ZM668.5 815.971V825.952H673.5V815.971H668.5ZM668.5 835.933V845.913H673.5V835.933H668.5ZM668.5 855.894V865.875H673.5V855.894H668.5ZM668.5 875.856V885.837H673.5V875.856H668.5ZM668.5 895.817V905.798H673.5V895.817H668.5ZM668.5 915.779V925.76H673.5V915.779H668.5ZM668.5 935.74V945.721H673.5V935.74H668.5ZM668.5 955.702V965.683H673.5V955.702H668.5ZM668.5 975.664V985.644H673.5V975.664H668.5ZM668.5 995.625V1005.61H673.5V995.625H668.5ZM668.5 1015.59V1025.57H673.5V1015.59H668.5ZM668.5 1035.55V1045.53H673.5V1035.55H668.5ZM668.5 1055.51V1065.49H673.5V1055.51H668.5ZM668.5 1075.47V1085.45H673.5V1075.47H668.5ZM668.5 1095.43V1105.41H673.5V1095.43H668.5ZM668.5 1115.39V1125.38H673.5V1115.39H668.5ZM668.5 1135.36V1145.34H673.5V1135.36H668.5ZM668.5 1155.32V1165.3H673.5V1155.32H668.5ZM668.5 1175.28V1185.26H673.5V1175.28H668.5ZM668.5 1195.24V1205.22H673.5V1195.24H668.5ZM668.5 1215.2V1225.18H673.5V1215.2H668.5ZM668.5 1235.16V1245.14H673.5V1235.16H668.5ZM668.5 1255.13V1265.11H673.5V1255.13H668.5ZM668.5 1275.09V1285.07H673.5V1275.09H668.5ZM668.5 1295.05V1305.03H673.5V1295.05H668.5ZM668.5 1315.01V1320H673.5V1315.01H668.5Z" fill="#D2D2D2"/>
<path d="M292 787.667C284.636 787.667 278.667 793.636 278.667 801C278.667 808.364 284.636 814.333 292 814.333C299.364 814.333 305.333 808.364 305.333 801C305.333 793.636 299.364 787.667 292 787.667ZM292 1098.67C284.636 1098.67 278.667 1104.64 278.667 1112C278.667 1119.36 284.636 1125.33 292 1125.33C299.364 1125.33 305.333 1119.36 305.333 1112C305.333 1104.64 299.364 1098.67 292 1098.67ZM289.5 801V805.859H294.5V801H289.5ZM289.5 815.578V825.297H294.5V815.578H289.5ZM289.5 835.016V844.734H294.5V835.016H289.5ZM289.5 854.453V864.172H294.5V854.453H289.5ZM289.5 873.891V883.609H294.5V873.891H289.5ZM289.5 893.328V903.047H294.5V893.328H289.5ZM289.5 912.766V922.484H294.5V912.766H289.5ZM289.5 932.203V941.922H294.5V932.203H289.5ZM289.5 951.641V961.359H294.5V951.641H289.5ZM289.5 971.078V980.797H294.5V971.078H289.5ZM289.5 990.516V1000.23H294.5V990.516H289.5ZM289.5 1009.95V1019.67H294.5V1009.95H289.5ZM289.5 1029.39V1039.11H294.5V1029.39H289.5ZM289.5 1048.83V1058.55H294.5V1048.83H289.5ZM289.5 1068.27V1077.98H294.5V1068.27H289.5ZM289.5 1087.7V1097.42H294.5V1087.7H289.5ZM289.5 1107.14V1112H294.5V1107.14H289.5Z" fill="#D2D2D2"/>
<g filter="url(#filter0_d_1230_8561)">
<rect x="145" width="656" height="279" rx="20" fill="#1D222E"/>
<rect x="147.5" y="2.5" width="651" height="274" rx="17.5" stroke="#A5A5A5" stroke-width="5"/>
</g>
<path d="M400.856 102.144C400.557 103.675 400.035 105.093 399.288 106.4C398.579 107.707 397.664 108.845 396.544 109.816C395.424 110.749 394.117 111.477 392.624 112C391.131 112.523 389.469 112.784 387.64 112.784C385.699 112.784 383.851 112.467 382.096 111.832C380.379 111.197 378.867 110.283 377.56 109.088C376.253 107.856 375.208 106.363 374.424 104.608C373.677 102.853 373.304 100.837 373.304 98.56V97.888C373.304 95.648 373.677 93.632 374.424 91.84C375.208 90.048 376.253 88.536 377.56 87.304C378.867 86.072 380.379 85.12 382.096 84.448C383.851 83.776 385.699 83.44 387.64 83.44C389.395 83.44 391.019 83.7013 392.512 84.224C394.005 84.7467 395.312 85.4933 396.432 86.464C397.589 87.3973 398.523 88.5173 399.232 89.824C399.979 91.1307 400.483 92.5493 400.744 94.08L396.376 95.088C396.264 94.1173 395.984 93.184 395.536 92.288C395.125 91.3547 394.547 90.552 393.8 89.88C393.091 89.1707 392.213 88.6107 391.168 88.2C390.123 87.7893 388.909 87.584 387.528 87.584C386.184 87.584 384.915 87.8453 383.72 88.368C382.563 88.8533 381.536 89.5627 380.64 90.496C379.744 91.392 379.035 92.4747 378.512 93.744C378.027 95.0133 377.784 96.3947 377.784 97.888V98.56C377.784 100.128 378.027 101.547 378.512 102.816C379.035 104.048 379.744 105.093 380.64 105.952C381.536 106.811 382.581 107.483 383.776 107.968C384.971 108.416 386.259 108.64 387.64 108.64C389.021 108.64 390.216 108.435 391.224 108.024C392.269 107.576 393.147 107.016 393.856 106.344C394.603 105.635 395.181 104.832 395.592 103.936C396.04 103.04 396.339 102.107 396.488 101.136L400.856 102.144ZM409.161 107.968H419.241V76.832H409.497V72.8H423.609V107.968H433.689V112H409.161V107.968ZM452.074 75.936C452.074 74.8533 452.447 73.9387 453.194 73.192C453.978 72.408 454.911 72.016 455.994 72.016C457.077 72.016 457.991 72.408 458.738 73.192C459.522 73.9387 459.914 74.8533 459.914 75.936C459.914 77.0187 459.522 77.952 458.738 78.736C457.991 79.4827 457.077 79.856 455.994 79.856C454.911 79.856 453.978 79.4827 453.194 78.736C452.447 77.952 452.074 77.0187 452.074 75.936ZM444.122 107.968H453.866V88.256H445.13V84.224H458.234V107.968H467.306V112H444.122V107.968ZM480.931 99.456C481.043 102.219 481.902 104.44 483.507 106.12C485.113 107.8 487.353 108.64 490.227 108.64C491.534 108.64 492.673 108.491 493.643 108.192C494.614 107.893 495.435 107.483 496.107 106.96C496.817 106.437 497.377 105.84 497.787 105.168C498.235 104.459 498.59 103.712 498.851 102.928L502.995 104.048C502.211 106.624 500.755 108.733 498.627 110.376C496.537 111.981 493.699 112.784 490.115 112.784C488.137 112.784 486.307 112.448 484.627 111.776C482.985 111.067 481.566 110.077 480.371 108.808C479.177 107.539 478.243 106.027 477.571 104.272C476.899 102.517 476.563 100.576 476.563 98.448V97.104C476.563 95.1627 476.899 93.352 477.571 91.672C478.281 89.992 479.251 88.5547 480.483 87.36C481.715 86.128 483.153 85.176 484.795 84.504C486.475 83.7947 488.286 83.44 490.227 83.44C492.505 83.44 494.465 83.8693 496.107 84.728C497.787 85.5493 499.15 86.576 500.195 87.808C501.278 89.04 502.062 90.384 502.547 91.84C503.07 93.296 503.331 94.64 503.331 95.872V99.456H480.931ZM490.227 87.584C488.995 87.584 487.838 87.7893 486.755 88.2C485.71 88.5733 484.777 89.1147 483.955 89.824C483.171 90.5333 482.518 91.3733 481.995 92.344C481.51 93.2773 481.193 94.304 481.043 95.424H498.963C498.889 94.2293 498.59 93.1467 498.067 92.176C497.582 91.2053 496.929 90.384 496.107 89.712C495.323 89.04 494.409 88.5173 493.363 88.144C492.355 87.7707 491.31 87.584 490.227 87.584ZM516.396 112H512.028V84.224H516.396V88.928H517.068C518.786 85.2693 521.772 83.44 526.028 83.44C529.239 83.44 531.796 84.448 533.7 86.464C535.604 88.4427 536.556 91.4293 536.556 95.424V112H532.188V96.32C532.188 93.408 531.535 91.224 530.228 89.768C528.922 88.312 527.148 87.584 524.908 87.584C522.258 87.584 520.167 88.4987 518.636 90.328C517.143 92.12 516.396 94.528 516.396 97.552V112ZM545.365 84.224H554.101V72.8H558.469V84.224H569.221V88.256H558.469V106.288C558.469 107.408 558.973 107.968 559.981 107.968H567.877V112H558.413C557.144 112 556.099 111.589 555.277 110.768C554.493 109.947 554.101 108.901 554.101 107.632V88.256H545.365V84.224Z" fill="#ACACAC"/>
<mask id="path-7-inside-1_1230_8561" fill="white">
<path d="M145 172H801V259C801 270.046 792.046 279 781 279H165C153.954 279 145 270.046 145 259V172Z"/>
</mask>
<path d="M145 172H801V259C801 270.046 792.046 279 781 279H165C153.954 279 145 270.046 145 259V172Z" fill="#2155FF"/>
<path d="M145 172H801H145ZM806 259C806 272.807 794.807 284 781 284H165C151.193 284 140 272.807 140 259H150C150 267.284 156.716 274 165 274H781C789.284 274 796 267.284 796 259H806ZM165 284C151.193 284 140 272.807 140 259V172H150V259C150 267.284 156.716 274 165 274V284ZM806 172V259C806 272.807 794.807 284 781 284V274C789.284 274 796 267.284 796 259V172H806Z" fill="#A5A5A5" mask="url(#path-7-inside-1_1230_8561)"/>
<path d="M393.088 240.672C390.064 240.672 387.339 239.981 384.912 238.6C382.523 237.181 380.637 235.277 379.256 232.888C377.875 230.461 377.184 227.736 377.184 224.712C377.184 221.688 377.875 218.981 379.256 216.592C380.637 214.203 382.523 212.317 384.912 210.936C387.339 209.555 390.064 208.864 393.088 208.864C395.253 208.864 397.269 209.256 399.136 210.04C401.003 210.787 402.608 211.832 403.952 213.176C405.333 214.483 406.323 216.051 406.92 217.88L400.48 220.68C399.92 219.149 398.968 217.917 397.624 216.984C396.317 216.051 394.805 215.584 393.088 215.584C391.483 215.584 390.045 215.976 388.776 216.76C387.544 217.544 386.573 218.627 385.864 220.008C385.155 221.389 384.8 222.976 384.8 224.768C384.8 226.56 385.155 228.147 385.864 229.528C386.573 230.909 387.544 231.992 388.776 232.776C390.045 233.56 391.483 233.952 393.088 233.952C394.843 233.952 396.373 233.485 397.68 232.552C398.987 231.619 399.92 230.368 400.48 228.8L406.92 231.712C406.323 233.429 405.352 234.979 404.008 236.36C402.664 237.704 401.059 238.768 399.192 239.552C397.325 240.299 395.291 240.672 393.088 240.672ZM427.214 240.672C423.966 240.672 421.148 239.963 418.758 238.544C416.369 237.125 414.521 235.203 413.214 232.776C411.908 230.349 411.254 227.661 411.254 224.712C411.254 221.651 411.908 218.944 413.214 216.592C414.558 214.203 416.369 212.317 418.646 210.936C420.961 209.555 423.537 208.864 426.374 208.864C428.764 208.864 430.854 209.256 432.646 210.04C434.476 210.824 436.025 211.907 437.294 213.288C438.564 214.669 439.534 216.256 440.206 218.048C440.878 219.803 441.214 221.707 441.214 223.76C441.214 224.283 441.177 224.824 441.102 225.384C441.065 225.944 440.972 226.429 440.822 226.84H417.302V221.24H436.678L433.206 223.872C433.542 222.155 433.449 220.624 432.926 219.28C432.441 217.936 431.62 216.872 430.462 216.088C429.342 215.304 427.98 214.912 426.374 214.912C424.844 214.912 423.481 215.304 422.286 216.088C421.092 216.835 420.177 217.955 419.542 219.448C418.945 220.904 418.721 222.677 418.87 224.768C418.721 226.635 418.964 228.296 419.598 229.752C420.27 231.171 421.26 232.272 422.566 233.056C423.873 233.84 425.422 234.232 427.214 234.232H438.246V240.672H427.214ZM446.775 240V209.536H460.663C463.389 209.536 465.722 210.021 467.663 210.992C469.642 211.963 471.154 213.344 472.199 215.136C473.245 216.891 473.767 219 473.767 221.464V240H466.431V221.8C466.431 220.045 465.909 218.664 464.863 217.656C463.818 216.611 462.418 216.088 460.663 216.088H454.111V240H446.775ZM493.859 240.336C490.424 240.336 487.755 239.403 485.851 237.536C483.984 235.632 483.051 232.963 483.051 229.528V216.088H477.787V209.536H478.347C479.84 209.536 480.997 209.144 481.819 208.36C482.64 207.576 483.051 206.437 483.051 204.944V202.592H490.387V209.536H497.387V216.088H490.387V229.136C490.387 230.144 490.555 231.003 490.891 231.712C491.264 232.421 491.824 232.963 492.571 233.336C493.355 233.709 494.344 233.896 495.539 233.896C495.8 233.896 496.099 233.877 496.435 233.84C496.808 233.803 497.163 233.765 497.499 233.728V240C496.976 240.075 496.379 240.149 495.707 240.224C495.035 240.299 494.419 240.336 493.859 240.336ZM503.104 240V209.536H509.992V216.312L509.432 215.304C510.141 213.027 511.242 211.44 512.736 210.544C514.266 209.648 516.096 209.2 518.224 209.2H520.016V215.696H517.384C515.293 215.696 513.613 216.349 512.344 217.656C511.074 218.925 510.44 220.717 510.44 223.032V240H503.104ZM533.289 240.672C531.161 240.672 529.313 240.317 527.745 239.608C526.177 238.899 524.963 237.891 524.105 236.584C523.246 235.24 522.817 233.691 522.817 231.936C522.817 230.256 523.19 228.763 523.937 227.456C524.683 226.112 525.841 224.992 527.409 224.096C528.977 223.2 530.955 222.565 533.345 222.192L543.313 220.568V226.168L534.745 227.624C533.289 227.885 532.206 228.352 531.497 229.024C530.787 229.696 530.433 230.573 530.433 231.656C530.433 232.701 530.825 233.541 531.609 234.176C532.43 234.773 533.438 235.072 534.633 235.072C536.163 235.072 537.507 234.755 538.665 234.12C539.859 233.448 540.774 232.533 541.409 231.376C542.081 230.219 542.417 228.949 542.417 227.568V221.8C542.417 220.045 541.875 218.664 540.793 217.656C539.747 216.611 538.235 216.088 536.257 216.088H526.009V209.536H536.649C539.374 209.536 541.707 210.021 543.649 210.992C545.627 211.963 547.139 213.344 548.185 215.136C549.23 216.891 549.753 219 549.753 221.464V240H542.809V234.792L544.377 234.68C543.593 235.987 542.659 237.088 541.577 237.984C540.494 238.843 539.262 239.515 537.881 240C536.499 240.448 534.969 240.672 533.289 240.672ZM566.501 240.336C563.104 240.336 560.584 239.589 558.941 238.096C557.336 236.565 556.533 234.232 556.533 231.096V197.608H563.869V230.536C563.869 232.813 565.101 233.952 567.565 233.952H567.845V240.336H566.501Z" fill="white"/>
<g filter="url(#filter1_d_1230_8561)">
<rect y="1112" width="584" height="136" rx="20" fill="#1D222E"/>
<rect x="2.5" y="1114.5" width="579" height="131" rx="17.5" stroke="#A5A5A5" stroke-width="5"/>
</g>
<path d="M100.667 1201.54L96.2987 1201.55L96.2725 1181.61C96.2708 1180.31 95.9708 1179.24 95.3723 1178.42C94.7739 1177.57 93.8213 1177.14 92.5147 1177.14C91.2827 1177.14 90.2753 1177.61 89.4925 1178.54C88.747 1179.44 88.3755 1180.84 88.378 1182.74L88.4027 1201.56L84.0347 1201.57L84.0082 1181.41C84.0066 1180.17 83.6693 1179.17 82.9963 1178.38C82.3232 1177.56 81.4267 1177.15 80.3067 1177.15C78.9627 1177.16 77.918 1177.64 77.1726 1178.61C76.4645 1179.59 76.1115 1180.86 76.1136 1182.42L76.1387 1201.58L71.7707 1201.58L71.7343 1173.81L76.1023 1173.8L76.1062 1176.82L76.7782 1176.82C77.2618 1175.52 77.9699 1174.56 78.9025 1173.96C79.835 1173.33 80.9359 1173.01 82.2052 1173.01C83.5492 1173.01 84.651 1173.36 85.5106 1174.07C86.4075 1174.78 87.0247 1175.69 87.3622 1176.81L88.0342 1176.81C89.3002 1174.27 91.3145 1173 94.0772 1172.99C96.1679 1172.99 97.7741 1173.66 98.8959 1175C100.055 1176.31 100.636 1178.02 100.639 1180.15L100.667 1201.54ZM116.82 1165.46C116.819 1164.38 117.191 1163.46 117.937 1162.71C118.72 1161.93 119.653 1161.54 120.735 1161.53C121.818 1161.53 122.733 1161.92 123.481 1162.71C124.266 1163.45 124.659 1164.37 124.66 1165.45C124.662 1166.53 124.271 1167.47 123.488 1168.25C122.742 1169 121.828 1169.37 120.746 1169.37C119.663 1169.38 118.729 1169 117.944 1168.26C117.196 1167.47 116.822 1166.54 116.82 1165.46ZM108.91 1197.5L118.654 1197.49L118.629 1177.78L109.893 1177.79L109.887 1173.76L122.991 1173.74L123.022 1197.48L132.094 1197.47L132.1 1201.5L108.916 1201.53L108.91 1197.5ZM168.504 1191.6C168.207 1193.13 167.686 1194.55 166.941 1195.86C166.234 1197.16 165.321 1198.3 164.202 1199.28C163.083 1200.21 161.777 1200.94 160.285 1201.47C158.792 1201.99 157.131 1202.25 155.302 1202.26C153.36 1202.26 151.512 1201.94 149.757 1201.31C148.038 1200.68 146.525 1199.77 145.217 1198.57C143.909 1197.34 142.861 1195.85 142.075 1194.1C141.326 1192.34 140.95 1190.33 140.947 1188.05L140.946 1187.38C140.943 1185.14 141.314 1183.12 142.058 1181.33C142.84 1179.54 143.883 1178.02 145.188 1176.79C146.493 1175.56 148.004 1174.6 149.721 1173.93C151.474 1173.25 153.322 1172.91 155.263 1172.91C157.018 1172.91 158.642 1173.17 160.136 1173.69C161.63 1174.21 162.938 1174.96 164.059 1175.92C165.218 1176.86 166.153 1177.98 166.864 1179.28C167.612 1180.59 168.118 1182 168.381 1183.54L164.015 1184.55C163.901 1183.58 163.62 1182.65 163.171 1181.75C162.759 1180.82 162.179 1180.02 161.432 1179.34C160.721 1178.64 159.843 1178.08 158.798 1177.67C157.752 1177.26 156.538 1177.05 155.157 1177.06C153.813 1177.06 152.544 1177.32 151.35 1177.85C150.193 1178.33 149.167 1179.04 148.273 1179.98C147.378 1180.87 146.67 1181.96 146.149 1183.23C145.665 1184.5 145.424 1185.88 145.426 1187.37L145.427 1188.05C145.429 1189.61 145.674 1191.03 146.161 1192.3C146.685 1193.53 147.396 1194.58 148.293 1195.43C149.19 1196.29 150.236 1196.96 151.431 1197.45C152.627 1197.89 153.915 1198.11 155.296 1198.11C156.678 1198.11 157.872 1197.9 158.88 1197.49C159.924 1197.04 160.801 1196.48 161.509 1195.81C162.255 1195.1 162.833 1194.29 163.242 1193.4C163.689 1192.5 163.986 1191.57 164.135 1190.6L168.504 1191.6ZM175.217 1173.67L185.297 1173.66L185.302 1177.35L185.974 1177.35C186.682 1175.82 187.688 1174.7 188.994 1173.99C190.299 1173.24 191.792 1172.86 193.472 1172.86C196.272 1172.86 198.532 1173.77 200.252 1175.6C201.972 1177.42 202.89 1180.09 203.006 1183.6L198.415 1184.28C198.412 1181.7 197.794 1179.86 196.56 1178.74C195.327 1177.58 193.814 1177.01 192.022 1177.01C190.864 1177.01 189.857 1177.24 188.999 1177.68C188.178 1178.13 187.488 1178.75 186.929 1179.53C186.37 1180.32 185.961 1181.23 185.701 1182.28C185.441 1183.33 185.312 1184.45 185.313 1185.64L185.329 1197.4L192.385 1197.39L192.39 1201.42L174.582 1201.45L174.577 1197.42L180.961 1197.41L180.935 1177.69L175.223 1177.7L175.217 1173.67ZM237.301 1187.81C237.304 1190.13 236.915 1192.18 236.133 1193.97C235.389 1195.73 234.383 1197.22 233.115 1198.46C231.847 1199.65 230.355 1200.57 228.639 1201.21C226.959 1201.84 225.205 1202.16 223.376 1202.17C221.509 1202.17 219.735 1201.85 218.055 1201.22C216.374 1200.59 214.898 1199.68 213.627 1198.48C212.356 1197.25 211.327 1195.76 210.541 1194.01C209.792 1192.22 209.416 1190.16 209.413 1187.85L209.412 1187.18C209.409 1184.9 209.78 1182.88 210.524 1181.13C211.306 1179.33 212.331 1177.82 213.598 1176.59C214.903 1175.35 216.395 1174.42 218.075 1173.78C219.754 1173.15 221.508 1172.83 223.337 1172.82C225.167 1172.82 226.922 1173.14 228.603 1173.77C230.283 1174.4 231.759 1175.33 233.03 1176.56C234.339 1177.79 235.367 1179.3 236.116 1181.09C236.903 1182.85 237.297 1184.86 237.3 1187.14L237.301 1187.81ZM223.37 1198.02C224.714 1198.02 225.946 1197.8 227.066 1197.35C228.222 1196.86 229.229 1196.17 230.087 1195.27C230.944 1194.37 231.615 1193.31 232.099 1192.08C232.582 1190.81 232.823 1189.39 232.821 1187.82L232.82 1187.15C232.818 1185.65 232.574 1184.29 232.087 1183.06C231.6 1181.79 230.926 1180.71 230.067 1179.81C229.207 1178.92 228.198 1178.23 227.04 1177.75C225.882 1177.23 224.649 1176.97 223.343 1176.97C222.036 1176.97 220.804 1177.23 219.648 1177.76C218.491 1178.24 217.484 1178.93 216.627 1179.83C215.769 1180.73 215.098 1181.81 214.615 1183.08C214.131 1184.32 213.89 1185.68 213.892 1187.17L213.893 1187.84C213.895 1189.41 214.14 1190.83 214.627 1192.1C215.114 1193.33 215.787 1194.39 216.647 1195.29C217.507 1196.18 218.497 1196.87 219.618 1197.36C220.775 1197.8 222.026 1198.02 223.37 1198.02ZM251.141 1180.74C251.143 1182.08 251.704 1183.11 252.825 1183.82C253.983 1184.52 256.074 1184.99 259.099 1185.21C262.347 1185.47 264.812 1186.25 266.494 1187.55C268.213 1188.82 269.074 1190.68 269.077 1193.15L269.078 1193.48C269.079 1194.83 268.801 1196.04 268.242 1197.12C267.721 1198.17 266.976 1199.07 266.006 1199.82C265.074 1200.56 263.917 1201.12 262.536 1201.5C261.193 1201.91 259.718 1202.12 258.113 1202.12C255.948 1202.12 254.081 1201.85 252.512 1201.29C250.98 1200.69 249.691 1199.93 248.645 1199C247.636 1198.03 246.869 1196.95 246.345 1195.75C245.82 1194.52 245.52 1193.29 245.444 1192.06L249.586 1191.04C249.776 1193.17 250.599 1194.89 252.057 1196.19C253.515 1197.46 255.457 1198.09 257.884 1198.09C259.937 1198.09 261.579 1197.69 262.81 1196.91C264.078 1196.08 264.712 1194.94 264.71 1193.49C264.708 1191.92 264.09 1190.8 262.857 1190.13C261.624 1189.46 259.626 1189.03 256.863 1188.85C253.653 1188.63 251.188 1187.89 249.469 1186.62C247.75 1185.35 246.888 1183.51 246.885 1181.08L246.885 1180.74C246.883 1179.44 247.162 1178.3 247.72 1177.33C248.279 1176.32 249.025 1175.48 249.957 1174.8C250.927 1174.13 252.009 1173.63 253.203 1173.29C254.397 1172.95 255.648 1172.78 256.954 1172.78C258.784 1172.78 260.389 1173.04 261.771 1173.56C263.153 1174.04 264.312 1174.69 265.246 1175.51C266.18 1176.29 266.891 1177.21 267.378 1178.25C267.902 1179.3 268.239 1180.34 268.39 1181.39L264.247 1182.4C264.058 1180.61 263.328 1179.21 262.058 1178.2C260.824 1177.2 259.2 1176.7 257.184 1176.7C256.4 1176.7 255.634 1176.79 254.888 1176.98C254.179 1177.13 253.544 1177.38 252.985 1177.71C252.425 1178.05 251.978 1178.48 251.643 1179C251.307 1179.49 251.14 1180.07 251.141 1180.74ZM282.864 1188.76C282.98 1191.52 283.842 1193.74 285.449 1195.42C287.057 1197.1 289.298 1197.94 292.173 1197.93C293.479 1197.93 294.618 1197.78 295.588 1197.48C296.558 1197.18 297.379 1196.77 298.05 1196.24C298.759 1195.72 299.318 1195.12 299.728 1194.45C300.175 1193.74 300.529 1192.99 300.789 1192.21L304.934 1193.32C304.154 1195.9 302.701 1198.01 300.575 1199.66C298.486 1201.27 295.65 1202.07 292.066 1202.08C290.087 1202.08 288.258 1201.75 286.577 1201.08C284.933 1200.37 283.513 1199.38 282.317 1198.11C281.12 1196.85 280.185 1195.34 279.511 1193.58C278.836 1191.83 278.498 1189.89 278.495 1187.76L278.493 1186.41C278.491 1184.47 278.824 1182.66 279.494 1180.98C280.201 1179.3 281.17 1177.86 282.401 1176.67C283.631 1175.43 285.067 1174.48 286.709 1173.8C288.388 1173.09 290.198 1172.74 292.139 1172.73C294.417 1172.73 296.377 1173.16 298.021 1174.01C299.702 1174.83 301.066 1175.86 302.113 1177.09C303.197 1178.32 303.983 1179.66 304.47 1181.12C304.995 1182.57 305.258 1183.92 305.26 1185.15L305.264 1188.73L282.864 1188.76ZM292.145 1176.88C290.913 1176.88 289.756 1177.09 288.674 1177.5C287.629 1177.87 286.696 1178.41 285.876 1179.12C285.093 1179.84 284.441 1180.68 283.919 1181.65C283.435 1182.58 283.119 1183.61 282.971 1184.73L300.891 1184.71C300.815 1183.51 300.515 1182.43 299.991 1181.46C299.504 1180.49 298.85 1179.67 298.028 1179C297.243 1178.33 296.327 1177.8 295.282 1177.43C294.273 1177.06 293.228 1176.88 292.145 1176.88ZM312.373 1173.49L322.453 1173.48L322.458 1177.17L323.13 1177.17C323.838 1175.64 324.844 1174.52 326.15 1173.81C327.456 1173.06 328.948 1172.68 330.628 1172.68C333.428 1172.68 335.688 1173.59 337.408 1175.42C339.128 1177.24 340.046 1179.91 340.163 1183.42L335.571 1184.1C335.568 1181.52 334.95 1179.68 333.716 1178.56C332.483 1177.4 330.97 1176.83 329.178 1176.83C328.021 1176.83 327.013 1177.05 326.155 1177.5C325.334 1177.95 324.644 1178.57 324.085 1179.35C323.526 1180.14 323.117 1181.05 322.857 1182.1C322.597 1183.15 322.468 1184.27 322.469 1185.46L322.485 1197.22L329.541 1197.21L329.546 1201.24L311.738 1201.27L311.733 1197.23L318.117 1197.23L318.091 1177.51L312.379 1177.52L312.373 1173.49ZM364.787 1201.2L356.163 1201.21L346.439 1173.45L351.591 1173.44L360.136 1199.19L360.808 1199.19L369.287 1173.42L374.439 1173.41L364.787 1201.2ZM391.133 1165.1C391.131 1164.02 391.503 1163.1 392.249 1162.35C393.032 1161.57 393.965 1161.17 395.048 1161.17C396.13 1161.17 397.045 1161.56 397.793 1162.35C398.578 1163.09 398.971 1164.01 398.973 1165.09C398.974 1166.17 398.583 1167.1 397.8 1167.89C397.055 1168.64 396.14 1169.01 395.058 1169.01C393.975 1169.01 393.041 1168.64 392.256 1167.9C391.509 1167.11 391.134 1166.18 391.133 1165.1ZM383.223 1197.14L392.967 1197.13L392.941 1177.42L384.205 1177.43L384.2 1173.4L397.304 1173.38L397.335 1197.12L406.407 1197.11L406.412 1201.14L383.228 1201.17L383.223 1197.14ZM442.816 1191.24C442.519 1192.77 441.999 1194.19 441.254 1195.5C440.546 1196.8 439.633 1197.94 438.514 1198.92C437.395 1199.85 436.09 1200.58 434.597 1201.11C433.104 1201.63 431.443 1201.89 429.614 1201.9C427.673 1201.9 425.824 1201.58 424.069 1200.95C422.351 1200.32 420.837 1199.41 419.529 1198.21C418.221 1196.98 417.174 1195.49 416.387 1193.74C415.638 1191.98 415.262 1189.97 415.259 1187.69L415.259 1187.02C415.256 1184.78 415.626 1182.76 416.371 1180.97C417.152 1179.18 418.196 1177.66 419.501 1176.43C420.806 1175.2 422.316 1174.24 424.033 1173.57C425.787 1172.89 427.634 1172.55 429.576 1172.55C431.33 1172.55 432.955 1172.81 434.449 1173.33C435.943 1173.85 437.25 1174.6 438.372 1175.56C439.53 1176.5 440.465 1177.62 441.176 1178.92C441.924 1180.23 442.43 1181.64 442.694 1183.17L438.327 1184.19C438.214 1183.22 437.932 1182.29 437.483 1181.39C437.071 1180.46 436.492 1179.66 435.744 1178.98C435.034 1178.28 434.156 1177.72 433.11 1177.31C432.064 1176.9 430.85 1176.69 429.469 1176.7C428.125 1176.7 426.856 1176.96 425.662 1177.49C424.505 1177.97 423.48 1178.68 422.585 1179.62C421.69 1180.51 420.982 1181.6 420.461 1182.87C419.977 1184.14 419.737 1185.52 419.739 1187.01L419.739 1187.69C419.741 1189.25 419.986 1190.67 420.473 1191.94C420.997 1193.17 421.708 1194.22 422.605 1195.07C423.502 1195.93 424.548 1196.6 425.744 1197.09C426.939 1197.53 428.227 1197.75 429.609 1197.75C430.99 1197.75 432.184 1197.54 433.192 1197.13C434.237 1196.68 435.113 1196.12 435.822 1195.45C436.567 1194.74 437.145 1193.93 437.554 1193.04C438.001 1192.14 438.299 1191.21 438.447 1190.24L442.816 1191.24ZM454.31 1188.54C454.425 1191.3 455.287 1193.52 456.894 1195.2C458.502 1196.87 460.743 1197.71 463.618 1197.71C464.924 1197.71 466.063 1197.55 467.033 1197.26C468.003 1196.96 468.824 1196.54 469.495 1196.02C470.204 1195.5 470.763 1194.9 471.173 1194.23C471.62 1193.52 471.974 1192.77 472.234 1191.98L476.38 1193.1C475.599 1195.68 474.146 1197.79 472.02 1199.43C469.931 1201.04 467.095 1201.85 463.511 1201.85C461.532 1201.85 459.703 1201.52 458.022 1200.85C456.378 1200.14 454.958 1199.16 453.762 1197.89C452.566 1196.62 451.63 1195.11 450.956 1193.36C450.282 1191.6 449.943 1189.66 449.94 1187.53L449.939 1186.19C449.936 1184.25 450.27 1182.44 450.939 1180.76C451.647 1179.08 452.615 1177.64 453.846 1176.44C455.076 1175.21 456.512 1174.25 458.154 1173.58C459.833 1172.87 461.643 1172.51 463.585 1172.51C465.862 1172.5 467.822 1172.93 469.466 1173.79C471.147 1174.61 472.511 1175.63 473.558 1176.86C474.643 1178.09 475.428 1179.44 475.916 1180.89C476.44 1182.35 476.703 1183.69 476.705 1184.92L476.71 1188.51L454.31 1188.54ZM463.59 1176.65C462.358 1176.65 461.201 1176.86 460.119 1177.27C459.074 1177.65 458.141 1178.19 457.321 1178.9C456.538 1179.61 455.886 1180.45 455.364 1181.42C454.88 1182.36 454.564 1183.38 454.416 1184.5L472.336 1184.48C472.26 1183.29 471.96 1182.2 471.436 1181.23C470.949 1180.26 470.295 1179.44 469.473 1178.77C468.688 1178.1 467.773 1177.58 466.727 1177.21C465.718 1176.84 464.673 1176.65 463.59 1176.65ZM491.164 1180.42C491.166 1181.77 491.727 1182.79 492.848 1183.5C494.006 1184.21 496.098 1184.67 499.122 1184.89C502.37 1185.15 504.835 1185.93 506.517 1187.24C508.236 1188.5 509.097 1190.37 509.1 1192.83L509.101 1193.17C509.103 1194.51 508.824 1195.73 508.266 1196.81C507.744 1197.85 506.999 1198.75 506.029 1199.5C505.097 1200.25 503.94 1200.81 502.559 1201.18C501.216 1201.6 499.741 1201.8 498.136 1201.81C495.971 1201.81 494.104 1201.53 492.535 1200.97C491.004 1200.38 489.715 1199.61 488.668 1198.68C487.659 1197.71 486.892 1196.63 486.368 1195.44C485.843 1194.21 485.543 1192.97 485.467 1191.74L489.61 1190.73C489.799 1192.86 490.623 1194.57 492.08 1195.88C493.538 1197.15 495.48 1197.78 497.907 1197.77C499.96 1197.77 501.602 1197.38 502.833 1196.59C504.102 1195.77 504.735 1194.63 504.733 1193.17C504.731 1191.61 504.113 1190.49 502.88 1189.82C501.648 1189.15 499.65 1188.72 496.887 1188.54C493.676 1188.32 491.211 1187.57 489.492 1186.31C487.773 1185.04 486.912 1183.19 486.909 1180.76L486.908 1180.43C486.906 1179.12 487.185 1177.98 487.744 1177.01C488.302 1176 489.048 1175.16 489.98 1174.49C490.95 1173.82 492.032 1173.31 493.226 1172.97C494.421 1172.64 495.671 1172.47 496.978 1172.46C498.807 1172.46 500.413 1172.72 501.795 1173.24C503.177 1173.72 504.335 1174.38 505.269 1175.2C506.204 1175.98 506.914 1176.89 507.401 1177.94C507.925 1178.98 508.262 1180.03 508.413 1181.07L504.27 1182.09C504.081 1180.29 503.351 1178.9 502.081 1177.89C500.847 1176.88 499.223 1176.38 497.207 1176.38C496.423 1176.38 495.658 1176.48 494.911 1176.67C494.202 1176.82 493.568 1177.06 493.008 1177.4C492.449 1177.73 492.001 1178.16 491.666 1178.69C491.33 1179.17 491.163 1179.75 491.164 1180.42Z" fill="#ACACAC"/>
<g filter="url(#filter2_d_1230_8561)">
<rect x="433" y="1320" width="475" height="136" rx="20" fill="#1D222E"/>
<rect x="435.5" y="1322.5" width="470" height="131" rx="17.5" stroke="#A5A5A5" stroke-width="5"/>
</g>
<path d="M546.453 1405.12L545.781 1405.12C545.334 1405.98 544.757 1406.72 544.048 1407.36C543.377 1407.99 542.631 1408.52 541.81 1408.93C541.027 1409.34 540.187 1409.64 539.291 1409.83C538.396 1410.05 537.537 1410.17 536.716 1410.17C534.849 1410.17 533.113 1409.86 531.507 1409.22C529.9 1408.59 528.48 1407.68 527.247 1406.48C526.051 1405.29 525.097 1403.82 524.385 1402.06C523.711 1400.27 523.372 1398.24 523.369 1395.96L523.368 1395.07C523.365 1392.83 523.717 1390.83 524.424 1389.07C525.131 1387.28 526.081 1385.78 527.274 1384.59C528.467 1383.35 529.866 1382.42 531.47 1381.78C533.075 1381.15 534.773 1380.83 536.565 1380.82C538.469 1380.82 540.243 1381.25 541.887 1382.11C543.568 1382.92 544.858 1384.21 545.756 1385.96L546.428 1385.96L546.407 1370.17L550.775 1370.17L550.827 1409.37L546.459 1409.37L546.453 1405.12ZM537.158 1406.02C538.465 1406.02 539.678 1405.78 540.797 1405.29C541.917 1404.8 542.886 1404.11 543.707 1403.21C544.564 1402.32 545.235 1401.25 545.718 1400.02C546.202 1398.75 546.443 1397.35 546.441 1395.82L546.44 1395.15C546.438 1393.65 546.194 1392.29 545.707 1391.06C545.22 1389.79 544.546 1388.71 543.686 1387.81C542.864 1386.92 541.874 1386.23 540.716 1385.75C539.595 1385.23 538.4 1384.97 537.131 1384.97C535.824 1384.97 534.592 1385.21 533.436 1385.7C532.316 1386.19 531.328 1386.88 530.47 1387.78C529.65 1388.67 528.998 1389.74 528.515 1390.97C528.068 1392.2 527.846 1393.57 527.848 1395.06L527.849 1395.96C527.851 1397.52 528.077 1398.92 528.527 1400.15C529.014 1401.39 529.668 1402.45 530.491 1403.34C531.351 1404.2 532.341 1404.87 533.461 1405.36C534.582 1405.8 535.814 1406.03 537.158 1406.02ZM579.398 1404.62L578.726 1404.62C577.832 1406.49 576.583 1407.88 574.979 1408.77C573.412 1409.67 571.751 1410.12 569.997 1410.12C568.167 1410.13 566.468 1409.83 564.9 1409.23C563.331 1408.6 561.948 1407.69 560.752 1406.5C559.593 1405.27 558.676 1403.77 558.002 1402.02C557.328 1400.27 556.989 1398.23 556.986 1395.92L556.985 1395.02C556.982 1392.74 557.315 1390.73 557.985 1388.97C558.655 1387.22 559.567 1385.74 560.723 1384.54C561.916 1383.31 563.296 1382.38 564.864 1381.74C566.431 1381.1 568.092 1380.78 569.846 1380.78C571.75 1380.78 573.468 1381.2 575 1382.06C576.569 1382.88 577.803 1384.17 578.701 1385.92L579.373 1385.92L579.367 1381.55L583.735 1381.55L583.764 1403.61C583.766 1404.73 584.27 1405.29 585.278 1405.29L586.678 1405.29L586.684 1409.32L583.716 1409.32C582.446 1409.32 581.401 1408.91 580.578 1408.09C579.793 1407.27 579.4 1406.23 579.398 1404.96L579.398 1404.62ZM570.439 1405.98C571.746 1405.98 572.94 1405.73 574.022 1405.25C575.142 1404.76 576.093 1404.07 576.876 1403.17C577.658 1402.27 578.273 1401.21 578.719 1399.98C579.166 1398.71 579.388 1397.31 579.386 1395.78L579.385 1395.1C579.383 1393.61 579.157 1392.25 578.708 1391.02C578.258 1389.75 577.622 1388.67 576.799 1387.77C576.014 1386.88 575.061 1386.19 573.941 1385.7C572.857 1385.18 571.681 1384.92 570.412 1384.92C569.105 1384.93 567.911 1385.17 566.829 1385.66C565.747 1386.14 564.796 1386.83 563.975 1387.73C563.193 1388.59 562.578 1389.66 562.132 1390.93C561.685 1392.16 561.463 1393.52 561.465 1395.02L561.466 1395.91C561.47 1399.08 562.295 1401.57 563.94 1403.36C565.622 1405.11 567.789 1405.98 570.439 1405.98ZM592.544 1381.53L601.28 1381.52L601.265 1370.1L605.633 1370.09L605.648 1381.52L616.4 1381.5L616.406 1385.54L605.654 1385.55L605.677 1403.58C605.679 1404.7 606.183 1405.26 607.191 1405.26L615.087 1405.25L615.093 1409.28L605.629 1409.29C604.359 1409.3 603.314 1408.89 602.491 1408.07C601.706 1407.25 601.313 1406.2 601.311 1404.93L601.286 1385.56L592.55 1385.57L592.544 1381.53ZM647.976 1404.53L647.304 1404.53C646.41 1406.4 645.161 1407.79 643.557 1408.68C641.99 1409.58 640.33 1410.03 638.575 1410.03C636.746 1410.04 635.046 1409.74 633.478 1409.14C631.909 1408.51 630.526 1407.6 629.33 1406.41C628.171 1405.18 627.255 1403.68 626.58 1401.93C625.906 1400.18 625.567 1398.14 625.564 1395.83L625.563 1394.93C625.56 1392.65 625.893 1390.64 626.563 1388.88C627.233 1387.13 628.145 1385.65 629.301 1384.45C630.494 1383.22 631.874 1382.29 633.442 1381.65C635.009 1381.01 636.67 1380.69 638.424 1380.69C640.328 1380.69 642.046 1381.11 643.578 1381.97C645.147 1382.79 646.381 1384.08 647.279 1385.83L647.951 1385.83L647.945 1381.46L652.313 1381.46L652.342 1403.52C652.344 1404.64 652.849 1405.2 653.857 1405.2L655.257 1405.2L655.262 1409.23L652.294 1409.23C651.024 1409.23 649.979 1408.82 649.156 1408C648.371 1407.18 647.978 1406.14 647.976 1404.87L647.976 1404.53ZM639.017 1405.89C640.324 1405.89 641.518 1405.64 642.6 1405.16C643.72 1404.67 644.671 1403.98 645.454 1403.08C646.237 1402.18 646.851 1401.12 647.298 1399.89C647.744 1398.62 647.966 1397.22 647.964 1395.69L647.963 1395.01C647.961 1393.52 647.735 1392.16 647.286 1390.93C646.836 1389.66 646.2 1388.58 645.378 1387.68C644.592 1386.79 643.639 1386.1 642.519 1385.61C641.435 1385.09 640.259 1384.83 638.99 1384.83C637.683 1384.84 636.489 1385.08 635.407 1385.57C634.325 1386.05 633.374 1386.74 632.553 1387.64C631.771 1388.5 631.156 1389.57 630.71 1390.84C630.263 1392.07 630.041 1393.43 630.043 1394.93L630.044 1395.82C630.048 1398.99 630.873 1401.48 632.518 1403.27C634.2 1405.02 636.367 1405.89 639.017 1405.89ZM665.471 1409.21L661.103 1409.22L661.051 1370.02L665.419 1370.01L665.44 1385.81L666.112 1385.81C667.081 1384.12 668.423 1382.85 670.139 1381.99C671.855 1381.09 673.721 1380.64 675.737 1380.64C677.455 1380.64 679.079 1380.95 680.611 1381.59C682.142 1382.22 683.487 1383.13 684.646 1384.33C685.842 1385.52 686.778 1386.99 687.452 1388.75C688.164 1390.5 688.521 1392.5 688.524 1394.74L688.525 1395.86C688.528 1398.13 688.195 1400.15 687.525 1401.91C686.856 1403.66 685.924 1405.14 684.731 1406.33C683.575 1407.53 682.214 1408.45 680.647 1409.08C679.079 1409.68 677.419 1409.98 675.664 1409.99C674.768 1409.99 673.853 1409.88 672.919 1409.65C671.986 1409.47 671.089 1409.17 670.23 1408.76C669.408 1408.31 668.642 1407.79 667.932 1407.2C667.222 1406.56 666.624 1405.82 666.137 1404.96L665.465 1404.96L665.471 1409.21ZM674.762 1405.84C676.106 1405.84 677.338 1405.62 678.458 1405.17C679.577 1404.68 680.547 1404.01 681.367 1403.15C682.224 1402.29 682.876 1401.24 683.323 1400.01C683.807 1398.77 684.047 1397.39 684.045 1395.86L684.044 1394.74C684.042 1393.25 683.797 1391.91 683.311 1390.71C682.861 1389.48 682.206 1388.44 681.346 1387.58C680.524 1386.68 679.534 1385.99 678.376 1385.51C677.255 1385.03 676.041 1384.78 674.735 1384.79C673.428 1384.79 672.215 1385.05 671.096 1385.58C669.976 1386.06 668.988 1386.75 668.131 1387.65C667.31 1388.55 666.658 1389.63 666.175 1390.9C665.691 1392.13 665.45 1393.5 665.452 1394.99L665.453 1395.66C665.455 1397.19 665.7 1398.59 666.187 1399.86C666.674 1401.09 667.328 1402.16 668.151 1403.05C669.011 1403.95 670.001 1404.64 671.121 1405.12C672.242 1405.6 673.456 1405.84 674.762 1405.84ZM716.554 1404.44L715.882 1404.44C714.988 1406.31 713.739 1407.7 712.135 1408.59C710.568 1409.49 708.908 1409.94 707.153 1409.94C705.324 1409.95 703.625 1409.65 702.056 1409.05C700.487 1408.42 699.104 1407.51 697.908 1406.32C696.749 1405.09 695.833 1403.59 695.158 1401.84C694.484 1400.09 694.145 1398.05 694.142 1395.74L694.141 1394.84C694.138 1392.56 694.471 1390.55 695.141 1388.79C695.811 1387.04 696.724 1385.56 697.879 1384.36C699.072 1383.13 700.452 1382.2 702.02 1381.56C703.587 1380.92 705.248 1380.6 707.002 1380.6C708.906 1380.6 710.624 1381.02 712.156 1381.88C713.725 1382.7 714.959 1383.99 715.857 1385.74L716.529 1385.74L716.523 1381.37L720.891 1381.37L720.92 1403.43C720.922 1404.55 721.427 1405.11 722.435 1405.11L723.835 1405.11L723.84 1409.14L720.872 1409.14C719.603 1409.14 718.557 1408.73 717.734 1407.91C716.949 1407.09 716.556 1406.05 716.554 1404.78L716.554 1404.44ZM707.595 1405.8C708.902 1405.8 710.096 1405.55 711.179 1405.07C712.298 1404.58 713.249 1403.89 714.032 1402.99C714.815 1402.09 715.429 1401.03 715.876 1399.8C716.322 1398.53 716.544 1397.13 716.542 1395.6L716.541 1394.92C716.539 1393.43 716.313 1392.07 715.864 1390.84C715.414 1389.57 714.778 1388.49 713.956 1387.59C713.17 1386.7 712.217 1386.01 711.097 1385.52C710.014 1385 708.837 1384.74 707.568 1384.74C706.261 1384.75 705.067 1384.99 703.985 1385.48C702.903 1385.96 701.952 1386.65 701.132 1387.55C700.349 1388.41 699.734 1389.48 699.288 1390.75C698.841 1391.98 698.619 1393.34 698.621 1394.84L698.622 1395.73C698.626 1398.9 699.451 1401.39 701.096 1403.18C702.778 1404.93 704.945 1405.8 707.595 1405.8ZM736.43 1388.51C736.432 1389.86 736.993 1390.88 738.114 1391.59C739.272 1392.3 741.363 1392.76 744.388 1392.98C747.636 1393.24 750.101 1394.02 751.783 1395.33C753.502 1396.59 754.363 1398.46 754.366 1400.92L754.367 1401.26C754.368 1402.6 754.09 1403.82 753.531 1404.9C753.01 1405.95 752.265 1406.84 751.295 1407.59C750.363 1408.34 749.206 1408.9 747.825 1409.27C746.482 1409.69 745.007 1409.89 743.402 1409.9C741.237 1409.9 739.37 1409.62 737.801 1409.06C736.269 1408.47 734.98 1407.7 733.934 1406.77C732.925 1405.8 732.158 1404.72 731.634 1403.53C731.109 1402.3 730.809 1401.06 730.733 1399.83L734.875 1398.82C735.065 1400.95 735.888 1402.66 737.346 1403.97C738.804 1405.24 740.746 1405.87 743.173 1405.86C745.226 1405.86 746.868 1405.47 748.099 1404.68C749.367 1403.86 750.001 1402.72 749.999 1401.26C749.997 1399.7 749.379 1398.58 748.146 1397.91C746.913 1397.24 744.915 1396.81 742.153 1396.63C738.942 1396.41 736.477 1395.66 734.758 1394.4C733.039 1393.13 732.177 1391.28 732.174 1388.86L732.174 1388.52C732.172 1387.21 732.451 1386.07 733.009 1385.1C733.568 1384.09 734.314 1383.25 735.246 1382.58C736.216 1381.91 737.298 1381.4 738.492 1381.06C739.686 1380.73 740.937 1380.56 742.243 1380.55C744.073 1380.55 745.678 1380.81 747.06 1381.33C748.442 1381.82 749.601 1382.47 750.535 1383.29C751.469 1384.07 752.18 1384.98 752.667 1386.03C753.191 1387.07 753.528 1388.12 753.679 1389.16L749.536 1390.18C749.347 1388.38 748.617 1386.99 747.347 1385.98C746.113 1384.97 744.489 1384.47 742.473 1384.47C741.689 1384.47 740.923 1384.57 740.177 1384.76C739.468 1384.91 738.833 1385.15 738.274 1385.49C737.714 1385.82 737.267 1386.25 736.932 1386.78C736.596 1387.26 736.429 1387.84 736.43 1388.51ZM768.153 1396.54C768.269 1399.3 769.131 1401.52 770.738 1403.2C772.346 1404.87 774.587 1405.71 777.462 1405.71C778.768 1405.71 779.907 1405.56 780.877 1405.26C781.847 1404.96 782.668 1404.54 783.339 1404.02C784.048 1403.5 784.607 1402.9 785.017 1402.23C785.464 1401.52 785.818 1400.77 786.078 1399.98L790.224 1401.1C789.443 1403.68 787.99 1405.79 785.864 1407.43C783.775 1409.04 780.939 1409.85 777.355 1409.85C775.376 1409.85 773.547 1409.52 771.866 1408.85C770.222 1408.14 768.802 1407.16 767.606 1405.89C766.409 1404.62 765.474 1403.11 764.8 1401.36C764.126 1399.6 763.787 1397.66 763.784 1395.53L763.782 1394.19C763.78 1392.25 764.113 1390.44 764.783 1388.76C765.49 1387.08 766.459 1385.64 767.69 1384.44C768.92 1383.21 770.356 1382.25 771.998 1381.58C773.677 1380.87 775.487 1380.51 777.428 1380.51C779.706 1380.5 781.666 1380.93 783.31 1381.79C784.991 1382.61 786.355 1383.63 787.402 1384.86C788.486 1386.09 789.272 1387.44 789.759 1388.89C790.284 1390.35 790.547 1391.69 790.549 1392.92L790.553 1396.51L768.153 1396.54ZM777.434 1384.65C776.202 1384.65 775.045 1384.86 773.963 1385.27C772.918 1385.65 771.985 1386.19 771.165 1386.9C770.382 1387.61 769.73 1388.45 769.208 1389.42C768.724 1390.36 768.408 1391.38 768.26 1392.5L786.18 1392.48C786.104 1391.29 785.804 1390.2 785.28 1389.23C784.793 1388.26 784.139 1387.44 783.317 1386.77C782.532 1386.1 781.616 1385.58 780.571 1385.21C779.562 1384.84 778.517 1384.65 777.434 1384.65ZM805.008 1388.42C805.01 1389.77 805.571 1390.79 806.692 1391.5C807.85 1392.21 809.942 1392.67 812.966 1392.89C816.214 1393.15 818.679 1393.93 820.361 1395.24C822.08 1396.5 822.941 1398.37 822.944 1400.83L822.945 1401.17C822.946 1402.51 822.668 1403.73 822.109 1404.81C821.588 1405.86 820.843 1406.75 819.873 1407.5C818.941 1408.25 817.784 1408.81 816.403 1409.18C815.06 1409.6 813.585 1409.8 811.98 1409.81C809.815 1409.81 807.948 1409.53 806.379 1408.97C804.847 1408.38 803.558 1407.61 802.512 1406.68C801.503 1405.71 800.736 1404.63 800.212 1403.44C799.687 1402.21 799.387 1400.97 799.311 1399.74L803.453 1398.73C803.643 1400.86 804.467 1402.57 805.924 1403.88C807.382 1405.15 809.324 1405.78 811.751 1405.77C813.804 1405.77 815.446 1405.38 816.677 1404.59C817.945 1403.77 818.579 1402.63 818.577 1401.17C818.575 1399.61 817.957 1398.49 816.724 1397.82C815.491 1397.15 813.494 1396.72 810.731 1396.54C807.52 1396.32 805.055 1395.57 803.336 1394.31C801.617 1393.04 800.756 1391.19 800.752 1388.77L800.752 1388.43C800.75 1387.12 801.029 1385.98 801.587 1385.01C802.146 1384 802.892 1383.16 803.824 1382.49C804.794 1381.82 805.876 1381.31 807.07 1380.97C808.264 1380.64 809.515 1380.47 810.821 1380.46C812.651 1380.46 814.256 1380.72 815.639 1381.24C817.02 1381.73 818.179 1382.38 819.113 1383.2C820.047 1383.98 820.758 1384.89 821.245 1385.94C821.769 1386.98 822.106 1388.03 822.257 1389.07L818.114 1390.09C817.925 1388.29 817.195 1386.9 815.925 1385.89C814.691 1384.88 813.067 1384.38 811.051 1384.38C810.267 1384.38 809.501 1384.48 808.755 1384.67C808.046 1384.82 807.412 1385.06 806.852 1385.4C806.292 1385.73 805.845 1386.16 805.51 1386.69C805.174 1387.17 805.007 1387.75 805.008 1388.42Z" fill="#ACACAC"/>
<g filter="url(#filter3_d_1230_8561)">
<mask id="path-16-inside-2_1230_8561" fill="white">
<path d="M801 781C801 792.046 792.046 801 781 801L165 801C153.954 801 145 792.046 145 781V714C145 702.954 153.954 694 165 694L781 694C792.046 694 801 702.954 801 714V781Z"/>
</mask>
<path d="M801 781C801 792.046 792.046 801 781 801L165 801C153.954 801 145 792.046 145 781V714C145 702.954 153.954 694 165 694L781 694C792.046 694 801 702.954 801 714V781Z" fill="#2155FF"/>
<path d="M806 781C806 794.807 794.807 806 781 806L165 806C151.193 806 140 794.807 140 781H150C150 789.284 156.716 796 165 796L781 796C789.284 796 796 789.284 796 781H806ZM140 714C140 700.193 151.193 689 165 689L781 689C794.807 689 806 700.193 806 714H796C796 705.716 789.284 699 781 699L165 699C156.716 699 150 705.716 150 714H140ZM781 689C794.807 689 806 700.193 806 714V781C806 794.807 794.807 806 781 806V796C789.284 796 796 789.284 796 781V714C796 705.716 789.284 699 781 699V689ZM165 806C151.193 806 140 794.807 140 781V714C140 700.193 151.193 689 165 689V699C156.716 699 150 705.716 150 714V781C150 789.284 156.716 796 165 796V806Z" fill="#A5A5A5" mask="url(#path-16-inside-2_1230_8561)"/>
</g>
<path d="M394.112 768.794C391.088 768.798 388.362 768.111 385.933 766.733C383.542 765.317 381.654 763.416 380.27 761.028C378.885 758.603 378.191 755.879 378.187 752.855C378.183 749.831 378.87 747.123 380.248 744.732C381.627 742.341 383.509 740.453 385.897 739.069C388.322 737.684 391.046 736.99 394.07 736.986C396.236 736.983 398.252 737.373 400.12 738.154C401.987 738.898 403.594 739.942 404.94 741.284C406.323 742.589 407.314 744.155 407.914 745.984L401.478 748.792C400.916 747.262 399.962 746.032 398.617 745.1C397.309 744.169 395.796 743.704 394.079 743.706C392.474 743.708 391.037 744.102 389.769 744.888C388.538 745.673 387.568 746.757 386.861 748.14C386.153 749.522 385.801 751.109 385.803 752.901C385.806 754.693 386.162 756.279 386.873 757.66C387.585 759.04 388.557 760.121 389.79 760.904C391.06 761.686 392.498 762.076 394.103 762.074C395.858 762.072 397.388 761.603 398.693 760.668C399.999 759.733 400.931 758.481 401.488 756.912L407.932 759.816C407.337 761.534 406.369 763.085 405.026 764.468C403.684 765.813 402.08 766.88 400.215 767.666C398.349 768.415 396.315 768.791 394.112 768.794ZM428.238 768.749C424.99 768.754 422.171 768.048 419.78 766.632C417.388 765.217 415.538 763.297 414.228 760.872C412.918 758.447 412.261 755.76 412.257 752.81C412.253 749.749 412.903 747.041 414.207 744.688C415.548 742.297 417.356 740.409 419.631 739.025C421.944 737.64 424.519 736.946 427.357 736.942C429.746 736.939 431.837 737.328 433.63 738.11C435.46 738.892 437.011 739.972 438.282 741.352C439.554 742.732 440.526 744.317 441.201 746.108C441.875 747.862 442.213 749.766 442.216 751.819C442.217 752.342 442.18 752.883 442.106 753.443C442.07 754.003 441.977 754.489 441.828 754.899L418.308 754.93L418.301 749.33L437.677 749.305L434.208 751.941C434.542 750.224 434.447 748.693 433.922 747.35C433.435 746.006 432.612 744.943 431.454 744.161C430.333 743.378 428.97 742.988 427.365 742.99C425.834 742.992 424.472 743.386 423.278 744.172C422.084 744.92 421.171 746.041 420.538 747.535C419.943 748.992 419.721 750.766 419.873 752.856C419.727 754.723 419.971 756.384 420.608 757.839C421.282 759.257 422.273 760.357 423.58 761.139C424.888 761.922 426.438 762.312 428.23 762.309L439.262 762.295L439.27 768.735L428.238 768.749ZM447.799 768.052L447.758 737.588L461.646 737.569C464.372 737.566 466.706 738.048 468.648 739.016C470.628 739.984 472.142 741.364 473.19 743.154C474.237 744.907 474.763 747.016 474.766 749.48L474.79 768.016L467.454 768.026L467.431 749.826C467.428 748.071 466.904 746.69 465.857 745.684C464.81 744.64 463.41 744.119 461.655 744.121L455.103 744.13L455.134 768.042L447.799 768.052ZM494.882 768.326C491.448 768.33 488.777 767.4 486.871 765.536C485.001 763.635 484.065 760.967 484.06 757.532L484.042 744.092L478.778 744.099L478.77 737.547L479.33 737.546C480.823 737.544 481.98 737.151 482.8 736.366C483.621 735.58 484.03 734.441 484.028 732.948L484.025 730.596L491.361 730.586L491.37 737.53L498.37 737.521L498.378 744.073L491.378 744.082L491.396 757.13C491.397 758.138 491.566 758.997 491.903 759.706C492.277 760.414 492.838 760.955 493.585 761.327C494.37 761.7 495.359 761.885 496.554 761.884C496.815 761.883 497.114 761.864 497.45 761.826C497.823 761.789 498.178 761.751 498.514 761.713L498.522 767.985C497.999 768.06 497.402 768.136 496.73 768.211C496.058 768.287 495.442 768.325 494.882 768.326ZM504.127 767.978L504.087 737.514L510.975 737.505L510.983 744.281L510.422 743.273C511.128 740.995 512.228 739.407 513.72 738.509C515.249 737.611 517.078 737.161 519.206 737.158L520.998 737.155L521.007 743.651L518.375 743.655C516.284 743.658 514.605 744.313 513.337 745.621C512.07 746.892 511.437 748.685 511.44 751L511.463 767.968L504.127 767.978ZM534.313 768.61C532.185 768.613 530.336 768.261 528.767 767.553C527.198 766.846 525.984 765.84 525.123 764.534C524.263 763.191 523.832 761.642 523.829 759.888C523.827 758.208 524.198 756.714 524.943 755.406C525.688 754.061 526.844 752.94 528.411 752.042C529.978 751.144 531.956 750.506 534.344 750.13L544.31 748.493L544.318 754.093L535.752 755.56C534.296 755.823 533.214 756.291 532.505 756.964C531.797 757.637 531.443 758.515 531.445 759.598C531.446 760.643 531.839 761.483 532.624 762.116C533.446 762.712 534.455 763.01 535.649 763.008C537.18 763.006 538.524 762.687 539.68 762.051C540.874 761.377 541.787 760.461 542.421 759.303C543.091 758.145 543.425 756.875 543.424 755.494L543.416 749.726C543.414 747.971 542.871 746.591 541.787 745.584C540.74 744.54 539.227 744.019 537.248 744.022L527 744.036L526.992 737.484L537.632 737.47C540.357 737.466 542.691 737.948 544.634 738.916C546.614 739.884 548.128 741.264 549.175 743.054C550.223 744.808 550.748 746.916 550.752 749.38L550.776 767.916L543.832 767.925L543.825 762.717L545.393 762.603C544.611 763.911 543.679 765.014 542.597 765.911C541.516 766.771 540.285 767.445 538.904 767.932C537.523 768.382 535.993 768.608 534.313 768.61ZM567.525 768.23C564.127 768.235 561.606 767.491 559.962 766C558.354 764.472 557.549 762.139 557.545 759.003L557.501 725.515L564.837 725.506L564.88 758.434C564.883 760.711 566.116 761.848 568.58 761.845L568.86 761.845L568.869 768.229L567.525 768.23Z" fill="white"/>
<rect x="507" y="382" width="328" height="59" rx="29.5" fill="#FFC9C9"/>
<path d="M568.26 427H561.834L559.104 399.112H558.6L555.87 427H549.444L546.462 397.6H549.654L552.468 425.488H552.972L555.618 397.6H562.086L564.732 425.488H565.236L568.05 397.6H571.242L568.26 427ZM577.765 417.592C577.849 419.664 578.493 421.33 579.697 422.59C580.901 423.85 582.581 424.48 584.737 424.48C585.717 424.48 586.571 424.368 587.299 424.144C588.027 423.92 588.643 423.612 589.147 423.22C589.679 422.828 590.099 422.38 590.407 421.876C590.743 421.344 591.009 420.784 591.205 420.196L594.313 421.036C593.725 422.968 592.633 424.55 591.037 425.782C589.469 426.986 587.341 427.588 584.653 427.588C583.169 427.588 581.797 427.336 580.537 426.832C579.305 426.3 578.241 425.558 577.345 424.606C576.449 423.654 575.749 422.52 575.245 421.204C574.741 419.888 574.489 418.432 574.489 416.836V415.828C574.489 414.372 574.741 413.014 575.245 411.754C575.777 410.494 576.505 409.416 577.429 408.52C578.353 407.596 579.431 406.882 580.663 406.378C581.923 405.846 583.281 405.58 584.737 405.58C586.445 405.58 587.915 405.902 589.147 406.546C590.407 407.162 591.429 407.932 592.213 408.856C593.025 409.78 593.613 410.788 593.977 411.88C594.369 412.972 594.565 413.98 594.565 414.904V417.592H577.765ZM584.737 408.688C583.813 408.688 582.945 408.842 582.133 409.15C581.349 409.43 580.649 409.836 580.033 410.368C579.445 410.9 578.955 411.53 578.563 412.258C578.199 412.958 577.961 413.728 577.849 414.568H591.289C591.233 413.672 591.009 412.86 590.617 412.132C590.253 411.404 589.763 410.788 589.147 410.284C588.559 409.78 587.873 409.388 587.089 409.108C586.333 408.828 585.549 408.688 584.737 408.688ZM603.608 427H600.332V397.6H603.608V409.444H604.112C604.84 408.184 605.848 407.232 607.136 406.588C608.424 405.916 609.824 405.58 611.336 405.58C612.624 405.58 613.842 405.818 614.99 406.294C616.138 406.77 617.146 407.456 618.014 408.352C618.91 409.248 619.61 410.354 620.114 411.67C620.646 412.986 620.912 414.484 620.912 416.164V417.004C620.912 418.712 620.66 420.224 620.156 421.54C619.652 422.856 618.952 423.962 618.056 424.858C617.188 425.754 616.166 426.44 614.99 426.916C613.814 427.364 612.568 427.588 611.252 427.588C610.58 427.588 609.894 427.504 609.194 427.336C608.494 427.196 607.822 426.972 607.178 426.664C606.562 426.328 605.988 425.936 605.456 425.488C604.924 425.012 604.476 424.452 604.112 423.808H603.608V427ZM610.58 424.48C611.588 424.48 612.512 424.312 613.352 423.976C614.192 423.612 614.92 423.108 615.536 422.464C616.18 421.82 616.67 421.036 617.006 420.112C617.37 419.188 617.552 418.152 617.552 417.004V416.164C617.552 415.044 617.37 414.036 617.006 413.14C616.67 412.216 616.18 411.432 615.536 410.788C614.92 410.116 614.178 409.598 613.31 409.234C612.47 408.87 611.56 408.688 610.58 408.688C609.6 408.688 608.69 408.884 607.85 409.276C607.01 409.64 606.268 410.158 605.624 410.83C605.008 411.502 604.518 412.314 604.154 413.266C603.79 414.19 603.608 415.212 603.608 416.332V416.836C603.608 417.984 603.79 419.034 604.154 419.986C604.518 420.91 605.008 421.708 605.624 422.38C606.268 423.052 607.01 423.57 607.85 423.934C608.69 424.298 609.6 424.48 610.58 424.48ZM642.932 406.084C642.932 405.132 642.736 404.292 642.344 403.564C641.98 402.836 641.476 402.234 640.832 401.758C640.188 401.282 639.446 400.918 638.606 400.666C637.766 400.414 636.884 400.288 635.96 400.288C635.148 400.288 634.378 400.4 633.65 400.624C632.922 400.82 632.264 401.114 631.676 401.506C631.116 401.898 630.668 402.388 630.332 402.976C629.996 403.536 629.828 404.194 629.828 404.95V405.202C629.828 406.014 629.996 406.714 630.332 407.302C630.668 407.862 631.158 408.352 631.802 408.772C632.474 409.164 633.3 409.5 634.28 409.78C635.26 410.032 636.408 410.256 637.724 410.452C640.804 410.928 643.072 411.838 644.528 413.182C645.984 414.498 646.712 416.276 646.712 418.516V419.02C646.712 420.28 646.488 421.442 646.04 422.506C645.62 423.542 644.976 424.438 644.108 425.194C643.268 425.95 642.218 426.538 640.958 426.958C639.698 427.378 638.242 427.588 636.59 427.588C634.714 427.588 633.048 427.322 631.592 426.79C630.164 426.23 628.96 425.474 627.98 424.522C627.028 423.542 626.3 422.408 625.796 421.12C625.292 419.804 625.04 418.376 625.04 416.836V415.576H628.568V416.584C628.568 419.16 629.268 421.092 630.668 422.38C632.096 423.668 634.07 424.312 636.59 424.312C638.774 424.312 640.412 423.836 641.504 422.884C642.624 421.904 643.184 420.616 643.184 419.02V418.768C643.184 417.228 642.61 416.052 641.462 415.24C640.342 414.428 638.508 413.84 635.96 413.476C634.476 413.28 633.132 412.986 631.928 412.594C630.752 412.174 629.744 411.642 628.904 410.998C628.064 410.326 627.42 409.528 626.972 408.604C626.524 407.68 626.3 406.588 626.3 405.328V404.824C626.3 403.676 626.538 402.626 627.014 401.674C627.49 400.722 628.148 399.896 628.988 399.196C629.856 398.496 630.878 397.964 632.054 397.6C633.258 397.208 634.574 397.012 636.002 397.012C637.654 397.012 639.124 397.25 640.412 397.726C641.728 398.202 642.834 398.846 643.73 399.658C644.626 400.442 645.298 401.38 645.746 402.472C646.222 403.536 646.46 404.656 646.46 405.832V407.596H642.932V406.084ZM672.177 416.836C672.177 418.572 671.883 420.112 671.295 421.456C670.735 422.772 669.979 423.892 669.027 424.816C668.075 425.712 666.955 426.398 665.667 426.874C664.407 427.35 663.091 427.588 661.719 427.588C660.319 427.588 658.989 427.35 657.729 426.874C656.469 426.398 655.363 425.712 654.411 424.816C653.459 423.892 652.689 422.772 652.101 421.456C651.541 420.112 651.261 418.572 651.261 416.836V416.332C651.261 414.624 651.541 413.112 652.101 411.796C652.689 410.452 653.459 409.318 654.411 408.394C655.391 407.47 656.511 406.77 657.771 406.294C659.031 405.818 660.347 405.58 661.719 405.58C663.091 405.58 664.407 405.818 665.667 406.294C666.927 406.77 668.033 407.47 668.985 408.394C669.965 409.318 670.735 410.452 671.295 411.796C671.883 413.112 672.177 414.624 672.177 416.332V416.836ZM661.719 424.48C662.727 424.48 663.651 424.312 664.491 423.976C665.359 423.612 666.115 423.094 666.759 422.422C667.403 421.75 667.907 420.952 668.271 420.028C668.635 419.076 668.817 418.012 668.817 416.836V416.332C668.817 415.212 668.635 414.19 668.271 413.266C667.907 412.314 667.403 411.502 666.759 410.83C666.115 410.158 665.359 409.64 664.491 409.276C663.623 408.884 662.699 408.688 661.719 408.688C660.739 408.688 659.815 408.884 658.947 409.276C658.079 409.64 657.323 410.158 656.679 410.83C656.035 411.502 655.531 412.314 655.167 413.266C654.803 414.19 654.621 415.212 654.621 416.332V416.836C654.621 418.012 654.803 419.076 655.167 420.028C655.531 420.952 656.035 421.75 656.679 422.422C657.323 423.094 658.065 423.612 658.905 423.976C659.773 424.312 660.711 424.48 661.719 424.48ZM697.726 419.608C697.502 420.756 697.11 421.82 696.55 422.8C696.018 423.78 695.332 424.634 694.492 425.362C693.652 426.062 692.672 426.608 691.552 427C690.432 427.392 689.186 427.588 687.814 427.588C686.358 427.588 684.972 427.35 683.656 426.874C682.368 426.398 681.234 425.712 680.254 424.816C679.274 423.892 678.49 422.772 677.902 421.456C677.342 420.14 677.062 418.628 677.062 416.92V416.416C677.062 414.736 677.342 413.224 677.902 411.88C678.49 410.536 679.274 409.402 680.254 408.478C681.234 407.554 682.368 406.84 683.656 406.336C684.972 405.832 686.358 405.58 687.814 405.58C689.13 405.58 690.348 405.776 691.468 406.168C692.588 406.56 693.568 407.12 694.408 407.848C695.276 408.548 695.976 409.388 696.508 410.368C697.068 411.348 697.446 412.412 697.642 413.56L694.366 414.316C694.282 413.588 694.072 412.888 693.736 412.216C693.428 411.516 692.994 410.914 692.434 410.41C691.902 409.878 691.244 409.458 690.46 409.15C689.676 408.842 688.766 408.688 687.73 408.688C686.722 408.688 685.77 408.884 684.874 409.276C684.006 409.64 683.236 410.172 682.564 410.872C681.892 411.544 681.36 412.356 680.968 413.308C680.604 414.26 680.422 415.296 680.422 416.416V416.92C680.422 418.096 680.604 419.16 680.968 420.112C681.36 421.036 681.892 421.82 682.564 422.464C683.236 423.108 684.02 423.612 684.916 423.976C685.812 424.312 686.778 424.48 687.814 424.48C688.85 424.48 689.746 424.326 690.502 424.018C691.286 423.682 691.944 423.262 692.476 422.758C693.036 422.226 693.47 421.624 693.778 420.952C694.114 420.28 694.338 419.58 694.45 418.852L697.726 419.608ZM709.331 414.82H710.045L717.983 406.168H722.015V406.42L713.363 415.954V416.71L723.023 426.748V427H718.991L710.129 417.844H709.331V427H706.055V397.6H709.331V414.82ZM732.066 417.592C732.15 419.664 732.794 421.33 733.998 422.59C735.202 423.85 736.882 424.48 739.038 424.48C740.018 424.48 740.872 424.368 741.6 424.144C742.328 423.92 742.944 423.612 743.448 423.22C743.98 422.828 744.4 422.38 744.708 421.876C745.044 421.344 745.31 420.784 745.506 420.196L748.614 421.036C748.026 422.968 746.934 424.55 745.338 425.782C743.77 426.986 741.642 427.588 738.954 427.588C737.47 427.588 736.098 427.336 734.838 426.832C733.606 426.3 732.542 425.558 731.646 424.606C730.75 423.654 730.05 422.52 729.546 421.204C729.042 419.888 728.79 418.432 728.79 416.836V415.828C728.79 414.372 729.042 413.014 729.546 411.754C730.078 410.494 730.806 409.416 731.73 408.52C732.654 407.596 733.732 406.882 734.964 406.378C736.224 405.846 737.582 405.58 739.038 405.58C740.746 405.58 742.216 405.902 743.448 406.546C744.708 407.162 745.73 407.932 746.514 408.856C747.326 409.78 747.914 410.788 748.278 411.88C748.67 412.972 748.866 413.98 748.866 414.904V417.592H732.066ZM739.038 408.688C738.114 408.688 737.246 408.842 736.434 409.15C735.65 409.43 734.95 409.836 734.334 410.368C733.746 410.9 733.256 411.53 732.864 412.258C732.5 412.958 732.262 413.728 732.15 414.568H745.59C745.534 413.672 745.31 412.86 744.918 412.132C744.554 411.404 744.064 410.788 743.448 410.284C742.86 409.78 742.174 409.388 741.39 409.108C740.634 408.828 739.85 408.688 739.038 408.688ZM754.674 406.168H761.226V397.6H764.502V406.168H772.566V409.192H764.502V422.716C764.502 423.556 764.88 423.976 765.636 423.976H771.558V427H764.46C763.508 427 762.724 426.692 762.108 426.076C761.52 425.46 761.226 424.676 761.226 423.724V409.192H754.674V406.168ZM785.431 411.544C785.431 412.552 785.851 413.322 786.691 413.854C787.559 414.386 789.127 414.736 791.395 414.904C793.831 415.1 795.679 415.688 796.939 416.668C798.227 417.62 798.871 419.02 798.871 420.868V421.12C798.871 422.128 798.661 423.038 798.241 423.85C797.849 424.634 797.289 425.306 796.561 425.866C795.861 426.426 794.993 426.846 793.957 427.126C792.949 427.434 791.843 427.588 790.639 427.588C789.015 427.588 787.615 427.378 786.439 426.958C785.291 426.51 784.325 425.936 783.541 425.236C782.785 424.508 782.211 423.696 781.819 422.8C781.427 421.876 781.203 420.952 781.147 420.028L784.255 419.272C784.395 420.868 785.011 422.156 786.103 423.136C787.195 424.088 788.651 424.564 790.471 424.564C792.011 424.564 793.243 424.27 794.167 423.682C795.119 423.066 795.595 422.212 795.595 421.12C795.595 419.944 795.133 419.104 794.209 418.6C793.285 418.096 791.787 417.774 789.715 417.634C787.307 417.466 785.459 416.906 784.171 415.954C782.883 415.002 782.239 413.616 782.239 411.796V411.544C782.239 410.564 782.449 409.71 782.869 408.982C783.289 408.226 783.849 407.596 784.549 407.092C785.277 406.588 786.089 406.21 786.985 405.958C787.881 405.706 788.819 405.58 789.799 405.58C791.171 405.58 792.375 405.776 793.411 406.168C794.447 406.532 795.315 407.022 796.015 407.638C796.715 408.226 797.247 408.912 797.611 409.696C798.003 410.48 798.255 411.264 798.367 412.048L795.259 412.804C795.119 411.46 794.573 410.41 793.621 409.654C792.697 408.898 791.479 408.52 789.967 408.52C789.379 408.52 788.805 408.59 788.245 408.73C787.713 408.842 787.237 409.024 786.817 409.276C786.397 409.528 786.061 409.85 785.809 410.242C785.557 410.606 785.431 411.04 785.431 411.544Z" fill="#DE0000"/>
<rect x="507" y="460" width="251" height="59" rx="29.5" fill="#C9F5FF"/>
<path d="M556.038 487.888H569.142V502H565.866V498.472H565.362C564.886 499.704 564.046 500.698 562.842 501.454C561.638 502.21 560.238 502.588 558.642 502.588C555.478 502.588 552.986 501.566 551.166 499.522C549.374 497.478 548.478 494.496 548.478 490.576V484.024C548.478 480.216 549.388 477.262 551.208 475.162C553.028 473.062 555.562 472.012 558.81 472.012C560.49 472.012 561.974 472.292 563.262 472.852C564.55 473.384 565.628 474.14 566.496 475.12C567.364 476.072 568.022 477.206 568.47 478.522C568.918 479.81 569.142 481.196 569.142 482.68V483.184H565.614V482.68C565.614 481.728 565.474 480.804 565.194 479.908C564.942 479.012 564.536 478.228 563.976 477.556C563.444 476.856 562.744 476.31 561.876 475.918C561.036 475.498 560.014 475.288 558.81 475.288C556.542 475.288 554.834 476.114 553.686 477.766C552.566 479.418 552.006 481.588 552.006 484.276V490.324C552.006 493.208 552.566 495.434 553.686 497.002C554.834 498.542 556.57 499.312 558.894 499.312C560.994 499.312 562.632 498.64 563.808 497.296C565.012 495.952 565.614 494.076 565.614 491.668V491.164H556.038V487.888ZM574.195 481.168H581.755V483.94H582.259C582.791 482.792 583.547 481.952 584.527 481.42C585.507 480.86 586.627 480.58 587.887 480.58C589.987 480.58 591.681 481.266 592.969 482.638C594.257 484.01 594.943 486.012 595.027 488.644L591.583 489.148C591.583 487.216 591.121 485.83 590.197 484.99C589.273 484.122 588.139 483.688 586.795 483.688C585.927 483.688 585.171 483.856 584.527 484.192C583.911 484.528 583.393 484.99 582.973 485.578C582.553 486.166 582.245 486.852 582.049 487.636C581.853 488.42 581.755 489.26 581.755 490.156V498.976H587.047V502H573.691V498.976H578.479V484.192H574.195V481.168ZM616.208 498.472H615.704C615.032 499.872 614.094 500.908 612.89 501.58C611.714 502.252 610.468 502.588 609.152 502.588C607.78 502.588 606.506 502.364 605.33 501.916C604.154 501.44 603.118 500.754 602.222 499.858C601.354 498.934 600.668 497.814 600.164 496.498C599.66 495.182 599.408 493.656 599.408 491.92V491.248C599.408 489.54 599.66 488.028 600.164 486.712C600.668 485.396 601.354 484.29 602.222 483.394C603.118 482.47 604.154 481.77 605.33 481.294C606.506 480.818 607.752 480.58 609.068 480.58C610.496 480.58 611.784 480.902 612.932 481.546C614.108 482.162 615.032 483.128 615.704 484.444H616.208V481.168H619.484V497.716C619.484 498.556 619.862 498.976 620.618 498.976H621.668V502H619.442C618.49 502 617.706 501.692 617.09 501.076C616.502 500.46 616.208 499.676 616.208 498.724V498.472ZM609.488 499.48C610.468 499.48 611.364 499.298 612.176 498.934C613.016 498.57 613.73 498.052 614.318 497.38C614.906 496.708 615.368 495.91 615.704 494.986C616.04 494.034 616.208 492.984 616.208 491.836V491.332C616.208 490.212 616.04 489.19 615.704 488.266C615.368 487.314 614.892 486.502 614.276 485.83C613.688 485.158 612.974 484.64 612.134 484.276C611.322 483.884 610.44 483.688 609.488 483.688C608.508 483.688 607.612 483.87 606.8 484.234C605.988 484.598 605.274 485.116 604.658 485.788C604.07 486.432 603.608 487.23 603.272 488.182C602.936 489.106 602.768 490.128 602.768 491.248V491.92C602.768 494.3 603.384 496.162 604.616 497.506C605.876 498.822 607.5 499.48 609.488 499.48ZM629.324 510.4H626.048V481.168H629.324V484.444H629.828C630.556 483.184 631.564 482.232 632.852 481.588C634.14 480.916 635.54 480.58 637.052 480.58C638.34 480.58 639.558 480.818 640.706 481.294C641.854 481.77 642.862 482.456 643.73 483.352C644.626 484.248 645.326 485.354 645.83 486.67C646.362 487.986 646.628 489.484 646.628 491.164V492.004C646.628 493.712 646.376 495.224 645.872 496.54C645.368 497.856 644.668 498.962 643.772 499.858C642.904 500.754 641.882 501.44 640.706 501.916C639.53 502.364 638.284 502.588 636.968 502.588C636.296 502.588 635.61 502.504 634.91 502.336C634.21 502.196 633.538 501.972 632.894 501.664C632.278 501.328 631.704 500.936 631.172 500.488C630.64 500.012 630.192 499.452 629.828 498.808H629.324V510.4ZM636.296 499.48C637.304 499.48 638.228 499.312 639.068 498.976C639.908 498.612 640.636 498.108 641.252 497.464C641.896 496.82 642.386 496.036 642.722 495.112C643.086 494.188 643.268 493.152 643.268 492.004V491.164C643.268 490.044 643.086 489.036 642.722 488.14C642.386 487.216 641.896 486.432 641.252 485.788C640.636 485.116 639.894 484.598 639.026 484.234C638.186 483.87 637.276 483.688 636.296 483.688C635.316 483.688 634.406 483.884 633.566 484.276C632.726 484.64 631.984 485.158 631.34 485.83C630.724 486.502 630.234 487.314 629.87 488.266C629.506 489.19 629.324 490.212 629.324 491.332V491.836C629.324 492.984 629.506 494.034 629.87 494.986C630.234 495.91 630.724 496.708 631.34 497.38C631.984 498.052 632.726 498.57 633.566 498.934C634.406 499.298 635.316 499.48 636.296 499.48ZM655.797 502H652.521V472.6H655.797V484.948H656.301C656.945 483.604 657.841 482.54 658.989 481.756C660.165 480.972 661.593 480.58 663.273 480.58C665.541 480.58 667.375 481.336 668.775 482.848C670.203 484.332 670.917 486.572 670.917 489.568V502H667.641V490.24C667.641 488.056 667.151 486.418 666.171 485.326C665.191 484.234 663.861 483.688 662.181 483.688C660.193 483.688 658.625 484.374 657.477 485.746C656.357 487.09 655.797 488.896 655.797 491.164V502ZM677.104 484.024C677.104 480.216 678.014 477.262 679.834 475.162C681.654 473.062 684.188 472.012 687.436 472.012C690.684 472.012 693.218 473.062 695.038 475.162C696.858 477.262 697.768 480.216 697.768 484.024V490.576C697.768 494.16 696.998 496.974 695.458 499.018C693.946 501.034 691.818 502.196 689.074 502.504V504.268C689.074 505.108 689.452 505.528 690.208 505.528H693.736V508.552H689.032C688.08 508.552 687.296 508.244 686.68 507.628C686.092 507.012 685.798 506.228 685.798 505.276V502.504C683.026 502.168 680.884 500.992 679.372 498.976C677.86 496.96 677.104 494.16 677.104 490.576V484.024ZM687.436 499.312C689.704 499.312 691.398 498.542 692.518 497.002C693.666 495.434 694.24 493.208 694.24 490.324V484.276C694.24 481.588 693.666 479.418 692.518 477.766C691.398 476.114 689.704 475.288 687.436 475.288C685.168 475.288 683.46 476.114 682.312 477.766C681.192 479.418 680.632 481.588 680.632 484.276V490.324C680.632 493.208 681.192 495.434 682.312 497.002C683.46 498.542 685.168 499.312 687.436 499.312ZM703.955 472.6H707.483V498.724H722.855V502H703.955V472.6Z" fill="#0073DE"/>
<rect x="507" y="538" width="165" height="59" rx="29.5" fill="#C9FFCE"/>
<path d="M562.05 583H558.522V573.172C558.522 572.444 558.354 571.884 558.018 571.492C557.682 571.1 557.094 570.904 556.254 570.904H547.098V583H543.57V553.6H554.07C555.582 553.6 556.898 553.824 558.018 554.272C559.138 554.692 560.062 555.266 560.79 555.994C561.546 556.722 562.106 557.576 562.47 558.556C562.862 559.508 563.058 560.516 563.058 561.58V562.84C563.058 563.932 562.75 565.024 562.134 566.116C561.546 567.208 560.622 568.048 559.362 568.636V569.14C560.202 569.28 560.86 569.616 561.336 570.148C561.812 570.68 562.05 571.436 562.05 572.416V583ZM547.098 567.628H553.65C555.638 567.628 557.108 567.208 558.06 566.368C559.04 565.5 559.53 564.24 559.53 562.588V561.832C559.53 560.348 559.04 559.158 558.06 558.262C557.108 557.338 555.638 556.876 553.65 556.876H547.098V567.628ZM569.665 553.6H587.473V556.876H573.193V566.62H587.221V569.896H573.193V579.724H587.725V583H569.665V553.6ZM611.216 562.084C611.216 561.132 611.02 560.292 610.628 559.564C610.264 558.836 609.76 558.234 609.116 557.758C608.472 557.282 607.73 556.918 606.89 556.666C606.05 556.414 605.168 556.288 604.244 556.288C603.432 556.288 602.662 556.4 601.934 556.624C601.206 556.82 600.548 557.114 599.96 557.506C599.4 557.898 598.952 558.388 598.616 558.976C598.28 559.536 598.112 560.194 598.112 560.95V561.202C598.112 562.014 598.28 562.714 598.616 563.302C598.952 563.862 599.442 564.352 600.086 564.772C600.758 565.164 601.584 565.5 602.564 565.78C603.544 566.032 604.692 566.256 606.008 566.452C609.088 566.928 611.356 567.838 612.812 569.182C614.268 570.498 614.996 572.276 614.996 574.516V575.02C614.996 576.28 614.772 577.442 614.324 578.506C613.904 579.542 613.26 580.438 612.392 581.194C611.552 581.95 610.502 582.538 609.242 582.958C607.982 583.378 606.526 583.588 604.874 583.588C602.998 583.588 601.332 583.322 599.876 582.79C598.448 582.23 597.244 581.474 596.264 580.522C595.312 579.542 594.584 578.408 594.08 577.12C593.576 575.804 593.324 574.376 593.324 572.836V571.576H596.852V572.584C596.852 575.16 597.552 577.092 598.952 578.38C600.38 579.668 602.354 580.312 604.874 580.312C607.058 580.312 608.696 579.836 609.788 578.884C610.908 577.904 611.468 576.616 611.468 575.02V574.768C611.468 573.228 610.894 572.052 609.746 571.24C608.626 570.428 606.792 569.84 604.244 569.476C602.76 569.28 601.416 568.986 600.212 568.594C599.036 568.174 598.028 567.642 597.188 566.998C596.348 566.326 595.704 565.528 595.256 564.604C594.808 563.68 594.584 562.588 594.584 561.328V560.824C594.584 559.676 594.822 558.626 595.298 557.674C595.774 556.722 596.432 555.896 597.272 555.196C598.14 554.496 599.162 553.964 600.338 553.6C601.542 553.208 602.858 553.012 604.286 553.012C605.938 553.012 607.408 553.25 608.696 553.726C610.012 554.202 611.118 554.846 612.014 555.658C612.91 556.442 613.582 557.38 614.03 558.472C614.506 559.536 614.744 560.656 614.744 561.832V563.596H611.216V562.084ZM619.67 553.6H640.334V556.876H631.766V583H628.238V556.876H619.67V553.6Z" fill="#02A726"/>
<defs>
<filter id="filter0_d_1230_8561" x="145" y="0" width="672" height="295" filterUnits="userSpaceOnUse" color-interpolation-filters="sRGB">
<feFlood flood-opacity="0" result="BackgroundImageFix"/>
<feColorMatrix in="SourceAlpha" type="matrix" values="0 0 0 0 0 0 0 0 0 0 0 0 0 0 0 0 0 0 127 0" result="hardAlpha"/>
<feMorphology radius="2" operator="dilate" in="SourceAlpha" result="effect1_dropShadow_1230_8561"/>
<feOffset dx="11" dy="11"/>
<feGaussianBlur stdDeviation="1.5"/>
<feComposite in2="hardAlpha" operator="out"/>
<feColorMatrix type="matrix" values="0 0 0 0 0 0 0 0 0 0 0 0 0 0 0 0 0 0 0.25 0"/>
<feBlend mode="normal" in2="BackgroundImageFix" result="effect1_dropShadow_1230_8561"/>
<feBlend mode="normal" in="SourceGraphic" in2="effect1_dropShadow_1230_8561" result="shape"/>
</filter>
<filter id="filter1_d_1230_8561" x="0" y="1112" width="598" height="150" filterUnits="userSpaceOnUse" color-interpolation-filters="sRGB">
<feFlood flood-opacity="0" result="BackgroundImageFix"/>
<feColorMatrix in="SourceAlpha" type="matrix" values="0 0 0 0 0 0 0 0 0 0 0 0 0 0 0 0 0 0 127 0" result="hardAlpha"/>
<feOffset dx="11" dy="11"/>
<feGaussianBlur stdDeviation="1.5"/>
<feComposite in2="hardAlpha" operator="out"/>
<feColorMatrix type="matrix" values="0 0 0 0 0 0 0 0 0 0 0 0 0 0 0 0 0 0 0.25 0"/>
<feBlend mode="normal" in2="BackgroundImageFix" result="effect1_dropShadow_1230_8561"/>
<feBlend mode="normal" in="SourceGraphic" in2="effect1_dropShadow_1230_8561" result="shape"/>
</filter>
<filter id="filter2_d_1230_8561" x="433" y="1320" width="489" height="150" filterUnits="userSpaceOnUse" color-interpolation-filters="sRGB">
<feFlood flood-opacity="0" result="BackgroundImageFix"/>
<feColorMatrix in="SourceAlpha" type="matrix" values="0 0 0 0 0 0 0 0 0 0 0 0 0 0 0 0 0 0 127 0" result="hardAlpha"/>
<feOffset dx="11" dy="11"/>
<feGaussianBlur stdDeviation="1.5"/>
<feComposite in2="hardAlpha" operator="out"/>
<feColorMatrix type="matrix" values="0 0 0 0 0 0 0 0 0 0 0 0 0 0 0 0 0 0 0.25 0"/>
<feBlend mode="normal" in2="BackgroundImageFix" result="effect1_dropShadow_1230_8561"/>
<feBlend mode="normal" in="SourceGraphic" in2="effect1_dropShadow_1230_8561" result="shape"/>
</filter>
<filter id="filter3_d_1230_8561" x="145" y="694" width="670" height="121" filterUnits="userSpaceOnUse" color-interpolation-filters="sRGB">
<feFlood flood-opacity="0" result="BackgroundImageFix"/>
<feColorMatrix in="SourceAlpha" type="matrix" values="0 0 0 0 0 0 0 0 0 0 0 0 0 0 0 0 0 0 127 0" result="hardAlpha"/>
<feOffset dx="11" dy="11"/>
<feGaussianBlur stdDeviation="1.5"/>
<feComposite in2="hardAlpha" operator="out"/>
<feColorMatrix type="matrix" values="0 0 0 0 0 0 0 0 0 0 0 0 0 0 0 0 0 0 0.25 0"/>
<feBlend mode="normal" in2="BackgroundImageFix" result="effect1_dropShadow_1230_8561"/>
<feBlend mode="normal" in="SourceGraphic" in2="effect1_dropShadow_1230_8561" result="shape"/>
</filter>
</defs>
</svg>
